<svg width="617" height="92" viewBox="0 0 617 92" fill="none" xmlns="http://www.w3.org/2000/svg">
<path d="M587.431 91.28C578.983 91.28 574.375 89.488 565.671 89.488H561.447V66.448H567.207C568.871 70.416 572.071 74.896 576.423 79.376C578.855 81.936 582.951 85.648 587.815 85.648C592.679 85.648 595.879 83.216 595.879 79.376C595.879 76.432 594.087 73.488 584.359 69.392C574.119 65.04 562.087 61.072 562.087 47.248C562.087 35.6 573.095 26.896 589.479 26.896C596.903 26.896 600.359 27.792 609.063 27.792L613.031 27.408V47.76H607.527C605.479 44.304 601.895 39.568 599.207 36.88C596.903 34.576 593.959 32.144 590.375 32.144C587.047 32.144 582.951 33.68 582.951 37.52C582.951 40.976 585.895 43.664 595.111 46.992C608.423 51.856 616.743 57.104 616.743 69.008C616.743 82.96 604.839 91.28 587.431 91.28Z" fill="#09090B"/>
<path d="M523.61 91.408C510.554 91.408 494.554 80.912 494.554 59.28C494.554 42 508.634 26.896 527.706 26.896C547.162 26.896 556.506 35.472 556.506 55.824H521.946C521.946 72.08 528.09 78.352 537.69 78.352C545.498 78.352 552.41 76.176 556.634 74.512V80.4C548.442 87.44 536.538 91.408 523.61 91.408ZM521.946 49.808H531.418C531.418 35.344 531.674 32.4 526.81 32.4C522.586 32.4 521.946 35.088 521.946 49.808Z" fill="#09090B"/>
<path d="M454.396 90V85.264L459.26 83.984V8.84801L452.86 7.82401V3.08801H486.268V83.984L490.62 85.264V90H454.396Z" fill="#09090B"/>
<path d="M385.486 91.536V8.84801L379.086 7.82401V3.08801H412.878V34.832C415.438 31.76 420.302 26.896 427.214 26.896C443.982 26.896 451.022 39.056 451.022 59.024C451.022 78.48 437.582 91.536 421.198 91.536C404.558 91.536 400.334 86.544 397.134 84.88L391.118 91.536H385.486ZM417.614 85.52C420.942 85.52 422.99 79.504 422.99 68.496C422.99 53.008 422.222 40.08 416.59 40.08C414.158 40.08 413.646 40.592 412.878 40.976V81.552C413.774 84.496 414.542 85.52 417.614 85.52Z" fill="#09090B"/>
<path d="M360.596 25.744C352.66 25.744 346.132 20.112 346.132 13.2C346.132 6.288 352.66 0.656006 360.596 0.656006C368.532 0.656006 375.188 6.288 375.188 13.2C375.188 20.112 368.532 25.744 360.596 25.744ZM342.676 90V85.264L347.668 83.984V34.32L341.908 33.296V28.56H375.06V83.984L379.028 85.264V90H342.676Z" fill="#09090B"/>
<path d="M309.056 91.28C300.608 91.28 296 89.488 287.296 89.488H283.072V66.448H288.832C290.496 70.416 293.696 74.896 298.048 79.376C300.48 81.936 304.576 85.648 309.44 85.648C314.304 85.648 317.504 83.216 317.504 79.376C317.504 76.432 315.712 73.488 305.984 69.392C295.744 65.04 283.712 61.072 283.712 47.248C283.712 35.6 294.72 26.896 311.104 26.896C318.528 26.896 321.984 27.792 330.688 27.792L334.656 27.408V47.76H329.152C327.104 44.304 323.52 39.568 320.832 36.88C318.528 34.576 315.584 32.144 312 32.144C308.672 32.144 304.576 33.68 304.576 37.52C304.576 40.976 307.52 43.664 316.736 46.992C330.048 51.856 338.368 57.104 338.368 69.008C338.368 82.96 326.464 91.28 309.056 91.28Z" fill="#09090B"/>
<path d="M245.235 91.408C232.179 91.408 216.179 80.912 216.179 59.28C216.179 42 230.259 26.896 249.331 26.896C268.787 26.896 278.131 35.472 278.131 55.824H243.571C243.571 72.08 249.715 78.352 259.315 78.352C267.123 78.352 274.035 76.176 278.259 74.512V80.4C270.067 87.44 258.163 91.408 245.235 91.408ZM243.571 49.808H253.043C253.043 35.344 253.299 32.4 248.435 32.4C244.211 32.4 243.571 35.088 243.571 49.808Z" fill="#09090B"/>
<path d="M182.452 91.408C167.988 91.408 154.804 78.864 154.804 58.256C154.804 40.976 167.732 26.896 189.108 26.896C205.876 26.896 213.172 32.784 213.172 41.744C213.172 48.4 207.796 53.264 199.476 53.264C192.692 53.264 187.444 49.808 187.444 43.792C187.444 38.672 190.644 35.472 194.1 33.296C193.076 32.784 191.796 32.4 190.388 32.4C183.86 32.4 182.836 40.592 182.836 53.904C182.836 68.88 186.804 78.352 198.324 78.352C203.572 78.352 208.692 77.328 213.172 75.152V80.912C204.212 87.184 198.964 91.408 182.452 91.408Z" fill="#09090B"/>
<path d="M121.077 91.408C106.613 91.408 93.4292 78.864 93.4292 58.256C93.4292 40.976 106.357 26.896 127.733 26.896C144.501 26.896 151.797 32.784 151.797 41.744C151.797 48.4 146.421 53.264 138.101 53.264C131.317 53.264 126.069 49.808 126.069 43.792C126.069 38.672 129.269 35.472 132.725 33.296C131.701 32.784 130.421 32.4 129.013 32.4C122.485 32.4 121.461 40.592 121.461 53.904C121.461 68.88 125.429 78.352 136.949 78.352C142.197 78.352 147.317 77.328 151.797 75.152V80.912C142.837 87.184 137.589 91.408 121.077 91.408Z" fill="#09090B"/>
<path d="M0.848145 85.008C6.35214 84.112 9.04015 79.376 11.0881 74.128L39.8881 2.57599H55.8881L87.2481 83.6L93.9042 85.008V90H45.1361V85.008L54.8641 83.856L48.3361 66.064H24.1441L17.2321 84.368L27.0881 85.008V90H0.848145V85.008ZM45.9041 59.28L36.6881 33.296L26.5761 59.28H45.9041Z" fill="#09090B"/>
</svg>
