<svg width="787" height="92" viewBox="0 0 787 92" fill="none" xmlns="http://www.w3.org/2000/svg">
<path d="M47.3038 91.792C14.5358 91.792 0.0717773 70.416 0.0717773 46.608C0.0717773 22.8 14.1518 1.29601 47.6878 1.29601C54.7278 1.29601 63.0478 3.08801 68.5518 3.08801H76.7438V30.48H70.5998L63.9438 18.832C60.1038 12.048 58.1838 8.84801 51.0158 6.928C40.7758 6.928 35.2718 13.328 33.8638 25.488C32.9678 33.296 32.8398 37.008 32.8398 46.608C32.8398 76.048 40.1358 82.064 51.9118 82.064C66.1198 82.064 69.5758 72.592 71.1118 62.864H78.6638C78.4078 77.712 68.1678 91.792 47.3038 91.792Z" fill="black"/>
<path d="M116.73 91.536C95.4818 91.536 82.5538 78.096 82.5538 59.152C82.5538 39.952 95.3538 26.896 116.73 26.896C137.85 26.896 150.778 39.824 150.778 59.024C150.778 78.224 137.978 91.536 116.73 91.536ZM116.602 86.032C122.234 86.032 121.978 78.992 121.978 59.152C121.978 40.464 122.106 32.4 116.602 32.4C110.586 32.4 111.354 40.08 111.354 59.152C111.354 79.248 110.842 86.032 116.602 86.032Z" fill="black"/>
<path d="M155.301 90V85.264L160.293 83.984V34.32L154.533 33.296V28.56H186.405V37.52C192.421 31.248 198.693 26.896 207.141 26.896C219.557 26.896 224.933 33.168 224.933 47.76V83.984L229.029 85.264V90H194.085V85.264L197.413 83.984V48.784C197.413 42.512 196.901 41.232 193.189 41.232C190.885 41.232 189.349 41.616 187.685 42.512V83.984L191.397 85.264V90H155.301Z" fill="black"/>
<path d="M259.806 91.28C251.358 91.28 246.75 89.488 238.046 89.488H233.822V66.448H239.582C241.246 70.416 244.446 74.896 248.798 79.376C251.23 81.936 255.326 85.648 260.19 85.648C265.054 85.648 268.254 83.216 268.254 79.376C268.254 76.432 266.462 73.488 256.734 69.392C246.494 65.04 234.462 61.072 234.462 47.248C234.462 35.6 245.47 26.896 261.854 26.896C269.278 26.896 272.734 27.792 281.438 27.792L285.406 27.408V47.76H279.902C277.854 44.304 274.27 39.568 271.582 36.88C269.278 34.576 266.334 32.144 262.75 32.144C259.422 32.144 255.326 33.68 255.326 37.52C255.326 40.976 258.27 43.664 267.486 46.992C280.798 51.856 289.118 57.104 289.118 69.008C289.118 82.96 277.214 91.28 259.806 91.28Z" fill="black"/>
<path d="M327.73 91.536C306.482 91.536 293.554 78.096 293.554 59.152C293.554 39.952 306.354 26.896 327.73 26.896C348.85 26.896 361.778 39.824 361.778 59.024C361.778 78.224 348.978 91.536 327.73 91.536ZM327.602 86.032C333.234 86.032 332.978 78.992 332.978 59.152C332.978 40.464 333.106 32.4 327.602 32.4C321.586 32.4 322.354 40.08 322.354 59.152C322.354 79.248 321.842 86.032 327.602 86.032Z" fill="black"/>
<path d="M364.646 90V85.264L369.51 83.984V8.84801L363.11 7.82401V3.08801H396.518V83.984L400.87 85.264V90H364.646Z" fill="black"/>
<path d="M423.221 25.744C415.285 25.744 408.757 20.112 408.757 13.2C408.757 6.288 415.285 0.656006 423.221 0.656006C431.157 0.656006 437.813 6.288 437.813 13.2C437.813 20.112 431.157 25.744 423.221 25.744ZM405.301 90V85.264L410.293 83.984V34.32L404.533 33.296V28.56H437.685V83.984L441.653 85.264V90H405.301Z" fill="black"/>
<path d="M469.499 91.536C454.395 91.536 445.435 77.968 445.435 59.024C445.435 39.952 456.315 26.896 472.699 26.896C478.331 26.896 481.531 27.024 483.835 27.28V9.232L475.643 8.08V3.08801H511.227V74C511.227 77.84 512.379 78.352 513.275 78.864C514.171 79.376 516.475 80.144 517.755 80.656V84.24C512.251 87.696 504.827 91.536 499.707 91.536C491.515 91.536 487.547 87.44 485.115 82.96C483.195 86.672 477.563 91.536 469.499 91.536ZM479.995 78.352C480.635 78.352 482.171 78.48 483.835 77.712V37.264C482.811 35.472 480.891 32.784 478.203 32.784C474.619 32.784 473.723 39.44 473.723 49.68C473.723 65.552 474.619 78.352 479.995 78.352Z" fill="black"/>
<path d="M534.911 91.536C525.695 91.536 518.271 84.368 518.271 76.176C518.271 62.608 528.255 60.944 552.831 53.392V39.184C552.831 37.008 551.167 33.808 546.175 33.808C543.103 33.808 541.439 34.192 540.031 34.704C542.975 37.008 546.303 40.208 546.303 44.56C546.303 49.552 541.183 53.776 533.375 53.776C524.799 53.776 520.575 49.68 520.575 44.304C520.575 35.216 535.679 26.896 550.783 26.896C572.543 26.896 579.711 33.168 579.711 47.632V74C579.711 77.712 580.991 78.096 582.015 78.736C583.167 79.504 584.191 79.76 586.239 80.656V84.24C580.863 87.696 573.439 91.536 568.063 91.536C560.383 91.536 555.903 88.848 553.343 82.704C547.711 90.384 543.359 91.536 534.911 91.536ZM549.375 79.248C550.399 79.248 551.295 78.864 552.831 78.096V59.28C548.223 61.456 544.895 61.328 544.895 69.904C544.895 76.944 545.919 79.248 549.375 79.248Z" fill="black"/>
<path d="M612.249 91.536C597.145 91.536 588.185 77.968 588.185 59.024C588.185 39.952 599.065 26.896 615.449 26.896C621.081 26.896 624.281 27.024 626.585 27.28V9.232L618.393 8.08V3.08801H653.977V74C653.977 77.84 655.129 78.352 656.025 78.864C656.921 79.376 659.225 80.144 660.505 80.656V84.24C655.001 87.696 647.577 91.536 642.457 91.536C634.265 91.536 630.297 87.44 627.865 82.96C625.945 86.672 620.313 91.536 612.249 91.536ZM622.745 78.352C623.385 78.352 624.921 78.48 626.585 77.712V37.264C625.561 35.472 623.641 32.784 620.953 32.784C617.369 32.784 616.473 39.44 616.473 49.68C616.473 65.552 617.369 78.352 622.745 78.352Z" fill="black"/>
<path d="M677.661 91.536C668.445 91.536 661.021 84.368 661.021 76.176C661.021 62.608 671.005 60.944 695.581 53.392V39.184C695.581 37.008 693.917 33.808 688.925 33.808C685.853 33.808 684.189 34.192 682.781 34.704C685.725 37.008 689.053 40.208 689.053 44.56C689.053 49.552 683.933 53.776 676.125 53.776C667.549 53.776 663.325 49.68 663.325 44.304C663.325 35.216 678.429 26.896 693.533 26.896C715.293 26.896 722.461 33.168 722.461 47.632V74C722.461 77.712 723.741 78.096 724.765 78.736C725.917 79.504 726.941 79.76 728.989 80.656V84.24C723.613 87.696 716.189 91.536 710.813 91.536C703.133 91.536 698.653 88.848 696.093 82.704C690.461 90.384 686.109 91.536 677.661 91.536ZM692.125 79.248C693.149 79.248 694.045 78.864 695.581 78.096V59.28C690.973 61.456 687.645 61.328 687.645 69.904C687.645 76.944 688.669 79.248 692.125 79.248Z" fill="black"/>
<path d="M757.431 91.28C748.983 91.28 744.375 89.488 735.671 89.488H731.447V66.448H737.207C738.871 70.416 742.071 74.896 746.423 79.376C748.855 81.936 752.951 85.648 757.815 85.648C762.679 85.648 765.879 83.216 765.879 79.376C765.879 76.432 764.087 73.488 754.359 69.392C744.119 65.04 732.087 61.072 732.087 47.248C732.087 35.6 743.095 26.896 759.479 26.896C766.903 26.896 770.359 27.792 779.063 27.792L783.031 27.408V47.76H777.527C775.479 44.304 771.895 39.568 769.207 36.88C766.903 34.576 763.959 32.144 760.375 32.144C757.047 32.144 752.951 33.68 752.951 37.52C752.951 40.976 755.895 43.664 765.111 46.992C778.423 51.856 786.743 57.104 786.743 69.008C786.743 82.96 774.839 91.28 757.431 91.28Z" fill="black"/>
</svg>
