<svg width="687" height="94" viewBox="0 0 687 94" fill="none" xmlns="http://www.w3.org/2000/svg">
<path id="punto" d="M657.306 93.28C648.858 93.28 644.25 91.488 635.546 91.488H631.322V68.448H637.082C638.746 72.416 641.946 76.896 646.298 81.376C648.73 83.936 652.826 87.648 657.69 87.648C662.554 87.648 665.754 85.216 665.754 81.376C665.754 78.432 663.962 75.488 654.234 71.392C643.994 67.04 631.962 63.072 631.962 49.248C631.962 37.6 642.97 28.896 659.354 28.896C666.778 28.896 670.234 29.792 678.938 29.792L682.906 29.408V49.76H677.402C675.354 46.304 671.77 41.568 669.082 38.88C666.778 36.576 663.834 34.144 660.25 34.144C656.922 34.144 652.826 35.68 652.826 39.52C652.826 42.976 655.77 45.664 664.986 48.992C678.298 53.856 686.618 59.104 686.618 71.008C686.618 84.96 674.714 93.28 657.306 93.28Z" fill="#09090B"/>
<path d="M577.536 93.536C568.32 93.536 560.896 86.368 560.896 78.176C560.896 64.608 570.88 62.944 595.456 55.392V41.184C595.456 39.008 593.792 35.808 588.8 35.808C585.728 35.808 584.064 36.192 582.656 36.704C585.6 39.008 588.928 42.208 588.928 46.56C588.928 51.552 583.808 55.776 576 55.776C567.424 55.776 563.2 51.68 563.2 46.304C563.2 37.216 578.304 28.896 593.408 28.896C615.168 28.896 622.336 35.168 622.336 49.632V76C622.336 79.712 623.616 80.096 624.64 80.736C625.792 81.504 626.816 81.76 628.864 82.656V86.24C623.488 89.696 616.064 93.536 610.688 93.536C603.008 93.536 598.528 90.848 595.968 84.704C590.336 92.384 585.984 93.536 577.536 93.536ZM592 81.248C593.024 81.248 593.92 80.864 595.456 80.096V61.28C590.848 63.456 587.52 63.328 587.52 71.904C587.52 78.944 588.544 81.248 592 81.248Z" fill="#09090B"/>
<path d="M539.174 93.408C527.014 93.408 521.766 86.752 521.766 78.304V37.216H516.134V33.248C527.398 26.336 535.078 20.704 544.166 12.896H549.158V30.56H559.142V37.216H549.158V72.16C549.158 77.28 549.798 78.688 554.022 79.968C554.79 80.224 557.606 80.864 560.294 81.376V85.344C556.838 88.16 548.262 93.408 539.174 93.408Z" fill="#09090B"/>
<path d="M484.306 93.28C475.858 93.28 471.25 91.488 462.546 91.488H458.322V68.448H464.082C465.746 72.416 468.946 76.896 473.298 81.376C475.73 83.936 479.826 87.648 484.69 87.648C489.554 87.648 492.754 85.216 492.754 81.376C492.754 78.432 490.962 75.488 481.234 71.392C470.994 67.04 458.962 63.072 458.962 49.248C458.962 37.6 469.97 28.896 486.354 28.896C493.778 28.896 497.234 29.792 505.938 29.792L509.906 29.408V49.76H504.402C502.354 46.304 498.77 41.568 496.082 38.88C493.778 36.576 490.834 34.144 487.25 34.144C483.922 34.144 479.826 35.68 479.826 39.52C479.826 42.976 482.77 45.664 491.986 48.992C505.298 53.856 513.618 59.104 513.618 71.008C513.618 84.96 501.714 93.28 484.306 93.28Z" fill="#09090B"/>
<path d="M404.536 93.536C395.32 93.536 387.896 86.368 387.896 78.176C387.896 64.608 397.88 62.944 422.456 55.392V41.184C422.456 39.008 420.792 35.808 415.8 35.808C412.728 35.808 411.064 36.192 409.656 36.704C412.6 39.008 415.928 42.208 415.928 46.56C415.928 51.552 410.808 55.776 403 55.776C394.424 55.776 390.2 51.68 390.2 46.304C390.2 37.216 405.304 28.896 420.408 28.896C442.168 28.896 449.336 35.168 449.336 49.632V76C449.336 79.712 450.616 80.096 451.64 80.736C452.792 81.504 453.816 81.76 455.864 82.656V86.24C450.488 89.696 443.064 93.536 437.688 93.536C430.008 93.536 425.528 90.848 422.968 84.704C417.336 92.384 412.984 93.536 404.536 93.536ZM419 81.248C420.024 81.248 420.92 80.864 422.456 80.096V61.28C417.848 63.456 414.52 63.328 414.52 71.904C414.52 78.944 415.544 81.248 419 81.248Z" fill="#09090B"/>
<path d="M348.926 92.0001V87.2641L353.918 85.9841V36.3201L348.158 35.2961V30.5601H381.31V85.9841L385.278 87.2641V92.0001H348.926Z" fill="#09090B"/>
<path d="M315.306 93.28C306.858 93.28 302.25 91.488 293.546 91.488H289.322V68.448H295.082C296.746 72.416 299.946 76.896 304.298 81.376C306.73 83.936 310.826 87.648 315.69 87.648C320.554 87.648 323.754 85.216 323.754 81.376C323.754 78.432 321.962 75.488 312.234 71.392C301.994 67.04 289.962 63.072 289.962 49.248C289.962 37.6 300.97 28.896 317.354 28.896C324.778 28.896 328.234 29.792 336.938 29.792L340.906 29.408V49.76H335.402C333.354 46.304 329.77 41.568 327.082 38.88C324.778 36.576 321.834 34.144 318.25 34.144C314.922 34.144 310.826 35.68 310.826 39.52C310.826 42.976 313.77 45.664 322.986 48.992C336.298 53.856 344.618 59.104 344.618 71.008C344.618 84.96 332.714 93.28 315.306 93.28Z" fill="#09090B"/>
<path d="M231.897 93.5361C220.121 93.5361 215.513 86.6241 215.513 74.3361V36.3201L210.393 35.2961V30.5601H242.905V71.7761C242.905 77.6641 243.929 79.0721 246.617 79.0721C249.305 79.0721 250.969 78.6881 252.761 77.6641V36.3201L247.513 35.2961V30.5601H280.025V76.0001C280.025 79.8401 281.049 80.4801 282.201 80.9921C282.969 81.3761 284.377 82.1441 286.041 82.7841V86.2401C280.409 89.6961 272.985 93.5361 267.737 93.5361C259.417 93.5361 253.145 89.0561 251.865 83.0401C245.849 91.1041 240.729 93.5361 231.897 93.5361Z" fill="#09090B"/>
<path d="M187.799 93.408C175.639 93.408 170.391 86.752 170.391 78.304V37.216H164.759V33.248C176.023 26.336 183.703 20.704 192.791 12.896H197.783V30.56H207.767V37.216H197.783V72.16C197.783 77.28 198.423 78.688 202.647 79.968C203.415 80.224 206.231 80.864 208.919 81.376V85.344C205.463 88.16 196.887 93.408 187.799 93.408Z" fill="#09090B"/>
<path d="M88.9262 92V87.264L93.9182 85.984V36.32L88.1582 35.296V30.56H120.03V39.52C126.046 33.248 132.318 28.896 140.766 28.896C153.182 28.896 158.558 35.168 158.558 49.76V85.984L162.654 87.264V92H127.71V87.264L131.038 85.984V50.784C131.038 44.512 130.526 43.232 126.814 43.232C124.51 43.232 122.974 43.616 121.31 44.512V85.984L125.022 87.264V92H88.9262Z" fill="#09090B"/>
<path d="M0.839844 92V87.008L8.39184 85.728V11.36L0.839844 10.08V5.08801H76.7439L77.8958 29.152H72.1358C66.6319 21.728 62.0238 17.248 55.3678 11.488H38.2158V43.616H39.8798C46.2798 40.672 52.1678 36.064 53.7038 28.768H59.4638V64.736H53.7038C52.1678 57.44 46.2798 52.96 39.8798 50.016H38.2158V85.6H56.5198C63.9438 78.176 70.2159 71.392 74.8239 64.096H80.8398L78.7919 92H0.839844Z" fill="#09090B"/>
<path d="M352 12.544C352 19.456 358.528 25.088 366.464 25.088C374.4 25.088 381.056 19.456 381.056 12.544C381.056 5.632 374.4 0 366.464 0C358.528 0 352 5.632 352 12.544Z" fill="#09090B"/>
</svg>
