<svg width="561" height="92" viewBox="0 0 561 92" fill="none" xmlns="http://www.w3.org/2000/svg">
<path d="M531.431 91.28C522.983 91.28 518.375 89.488 509.671 89.488H505.447V66.448H511.207C512.871 70.416 516.071 74.896 520.423 79.376C522.855 81.936 526.951 85.648 531.815 85.648C536.679 85.648 539.879 83.216 539.879 79.376C539.879 76.432 538.087 73.488 528.359 69.392C518.119 65.04 506.087 61.072 506.087 47.248C506.087 35.6 517.095 26.896 533.479 26.896C540.903 26.896 544.359 27.792 553.063 27.792L557.031 27.408V47.76H551.527C549.479 44.304 545.895 39.568 543.207 36.88C540.903 34.576 537.959 32.144 534.375 32.144C531.047 32.144 526.951 33.68 526.951 37.52C526.951 40.976 529.895 43.664 539.111 46.992C552.423 51.856 560.743 57.104 560.743 69.008C560.743 82.96 548.839 91.28 531.431 91.28Z" fill="black"/>
<path d="M451.661 91.536C442.445 91.536 435.021 84.368 435.021 76.176C435.021 62.608 445.005 60.944 469.581 53.392V39.184C469.581 37.008 467.917 33.808 462.925 33.808C459.853 33.808 458.189 34.192 456.781 34.704C459.725 37.008 463.053 40.208 463.053 44.56C463.053 49.552 457.933 53.776 450.125 53.776C441.549 53.776 437.325 49.68 437.325 44.304C437.325 35.216 452.429 26.896 467.533 26.896C489.293 26.896 496.461 33.168 496.461 47.632V74C496.461 77.712 497.741 78.096 498.765 78.736C499.917 79.504 500.941 79.76 502.989 80.656V84.24C497.613 87.696 490.189 91.536 484.813 91.536C477.133 91.536 472.653 88.848 470.093 82.704C464.461 90.384 460.109 91.536 451.661 91.536ZM466.125 79.248C467.149 79.248 468.045 78.864 469.581 78.096V59.28C464.973 61.456 461.645 61.328 461.645 69.904C461.645 76.944 462.669 79.248 466.125 79.248Z" fill="black"/>
<path d="M398.174 90.256L377.054 34.32L372.318 33.296V28.56H410.59V33.296L405.598 34.448L415.198 62.48L423.902 34.32L417.63 33.296V28.56H438.366V33.296C434.91 33.552 431.454 38.416 429.662 43.28L412.894 90.256H398.174Z" fill="black"/>
<path d="M355.596 25.744C347.66 25.744 341.132 20.112 341.132 13.2C341.132 6.288 347.66 0.656006 355.596 0.656006C363.532 0.656006 370.188 6.288 370.188 13.2C370.188 20.112 363.532 25.744 355.596 25.744ZM337.676 90V85.264L342.668 83.984V34.32L336.908 33.296V28.56H370.06V83.984L374.028 85.264V90H337.676Z" fill="black"/>
<path d="M313.674 91.408C301.514 91.408 296.266 84.752 296.266 76.304V35.216H290.634V31.248C301.898 24.336 309.578 18.704 318.666 10.896H323.658V28.56H333.642V35.216H323.658V70.16C323.658 75.28 324.298 76.688 328.522 77.968C329.29 78.224 332.106 78.864 334.794 79.376V83.344C331.338 86.16 322.762 91.408 313.674 91.408Z" fill="black"/>
<path d="M270.096 25.744C262.16 25.744 255.632 20.112 255.632 13.2C255.632 6.288 262.16 0.656006 270.096 0.656006C278.032 0.656006 284.688 6.288 284.688 13.2C284.688 20.112 278.032 25.744 270.096 25.744ZM252.176 90V85.264L257.168 83.984V34.32L251.408 33.296V28.56H284.56V83.984L288.528 85.264V90H252.176Z" fill="black"/>
<path d="M195.647 91.536C183.871 91.536 179.263 84.624 179.263 72.336V34.32L174.143 33.296V28.56H206.655V69.776C206.655 75.664 207.679 77.072 210.367 77.072C213.055 77.072 214.719 76.688 216.511 75.664V34.32L211.263 33.296V28.56H243.775V74C243.775 77.84 244.799 78.48 245.951 78.992C246.719 79.376 248.127 80.144 249.791 80.784V84.24C244.159 87.696 236.735 91.536 231.487 91.536C223.167 91.536 216.895 87.056 215.615 81.04C209.599 89.104 204.479 91.536 195.647 91.536Z" fill="black"/>
<path d="M151.549 91.408C139.389 91.408 134.141 84.752 134.141 76.304V35.216H128.509V31.248C139.773 24.336 147.453 18.704 156.541 10.896H161.533V28.56H171.517V35.216H161.533V70.16C161.533 75.28 162.173 76.688 166.397 77.968C167.165 78.224 169.981 78.864 172.669 79.376V83.344C169.213 86.16 160.637 91.408 151.549 91.408Z" fill="black"/>
<path d="M52.6762 90V85.264L57.6682 83.984V34.32L51.9082 33.296V28.56H83.7802V37.52C89.7962 31.248 96.0682 26.896 104.516 26.896C116.932 26.896 122.308 33.168 122.308 47.76V83.984L126.404 85.264V90H91.4602V85.264L94.7882 83.984V48.784C94.7882 42.512 94.2762 41.232 90.5642 41.232C88.2602 41.232 86.7242 41.616 85.0602 42.512V83.984L88.7722 85.264V90H52.6762Z" fill="black"/>
<path d="M0.352051 90V85.008L8.28805 83.728V9.36001L0.352051 8.08001V3.08801H46.0481V8.08001L38.1121 9.36001V83.728L46.0481 85.008V90H0.352051Z" fill="black"/>
</svg>
