<?xml version="1.0" encoding="utf-8"?>
<!-- Generator: Adobe Illustrator 25.4.1, SVG Export Plug-In . SVG Version: 6.00 Build 0)  -->
<svg version="1.1" xmlns="http://www.w3.org/2000/svg" xmlns:xlink="http://www.w3.org/1999/xlink" x="0px" y="0px"
	 viewBox="0 0 1513 4881" style="enable-background:new 0 0 1513 4881;" xml:space="preserve">
<style type="text/css">
	.st0{fill:#09090B;}
</style>
<g id="k">
	<path class="st0" d="M1506.5,7.6H1411l-92,150.6L1319,7.6H1236v359.7h82.9V263.9l25.6-40.5l71.6,143.9h96.4l-101.8-203.1
		L1506.5,7.6z"/>
	<path class="st0" d="M1506.5,412.6H1411l-92,150.6l-0.1-150.6H1236v359.7h82.9V668.9l25.6-40.5l71.6,143.9h96.4l-101.8-203.1
		L1506.5,412.6z"/>
	<path class="st0" d="M1506.5,817.6H1411l-92,150.6l-0.1-150.6H1236v359.7h82.9v-103.4l25.6-40.5l71.6,143.9h96.4l-101.8-203.1
		L1506.5,817.6z"/>
	<path class="st0" d="M1506.5,1235.6H1411l-92,150.6l-0.1-150.6H1236v359.7h82.9v-103.4l25.6-40.5l71.6,143.9h96.4l-101.8-203.1
		L1506.5,1235.6z"/>
	<path class="st0" d="M1506.5,1653.6H1411l-92,150.6l-0.1-150.6H1236v359.7h82.9v-103.4l25.6-40.5l71.6,143.9h96.4l-101.8-203.1
		L1506.5,1653.6z"/>
	<path class="st0" d="M1506.5,2058.7H1411l-92,150.6l-0.1-150.6H1236v359.7h82.9V2315l25.6-40.5l71.6,143.9h96.4l-101.8-203.1
		L1506.5,2058.7z"/>
	<path class="st0" d="M1506.5,2463.7H1411l-92,150.6l-0.1-150.6H1236v359.7h82.9V2720l25.6-40.5l71.6,143.9h96.4l-101.8-203.1
		L1506.5,2463.7z"/>
	<path class="st0" d="M1506.5,2881.7H1411l-92,150.6l-0.1-150.6H1236v359.7h82.9V3138l25.6-40.5l71.6,143.9h96.4l-101.8-203.1
		L1506.5,2881.7z"/>
	<path class="st0" d="M1506.5,3286.6H1411l-92,150.6l-0.1-150.6H1236v359.7h82.9v-103.4l25.6-40.5l71.6,143.9h96.4l-101.8-203.1
		L1506.5,3286.6z"/>
	<path class="st0" d="M1506.5,3691.7H1411l-92,150.6l-0.1-150.6H1236v359.7h82.9V3948l25.6-40.5l71.6,143.9h96.4l-101.8-203.1
		L1506.5,3691.7z"/>
	<path class="st0" d="M1506.5,4096.7H1411l-92,150.6l-0.1-150.6H1236v359.7h82.9V4353l25.6-40.5l71.6,143.9h96.4l-101.8-203.1
		L1506.5,4096.7z"/>
	<path class="st0" d="M1506.5,4514.7H1411l-92,150.6l-0.1-150.6H1236v359.7h82.9V4771l25.6-40.5l71.6,143.9h96.4l-101.8-203.1
		L1506.5,4514.7z"/>
</g>
<g id="c">
	<path class="st0" d="M1084.6,0.9c-70.1,0-119.1,50.4-119.1,122.6v127.2c0,72.4,49,123.1,119.1,123.1S1203,322.9,1203,250.7v-17
		h-84.6v20.4c0,35.3-19.5,39.4-33.8,39.4c-14.4,0-34.7-4.2-34.7-39.4V120.3c0-25.4,11.7-38.9,34.7-38.9c23,0,33.8,12.7,33.8,38.9
		v15.8h84.6v-12.6C1203.1,51.2,1154.4,0.9,1084.6,0.9z"/>
	<path class="st0" d="M1084.6,406c-70.1,0-119.1,50.4-119.1,122.6v127.2c0,72.4,49,123.1,119.1,123.1S1203,728,1203,655.8v-17h-84.6
		v20.4c0,35.3-19.5,39.4-33.8,39.4c-14.4,0-34.7-4.2-34.7-39.4V525.3c0-25.4,11.7-38.9,34.7-38.9c23,0,33.8,12.7,33.8,38.9v15.8
		h84.6v-12.6C1203.1,456.3,1154.4,406,1084.6,406z"/>
	<path class="st0" d="M1084.6,811c-70.1,0-119.1,50.4-119.1,122.6v127.2c0,72.4,49,123.1,119.1,123.1S1203,1133,1203,1060.8v-17
		h-84.6v20.4c0,35.3-19.5,39.4-33.8,39.4c-14.4,0-34.7-4.1-34.7-39.4V930.3c0-25.4,11.7-38.9,34.7-38.9c23,0,33.8,12.7,33.8,38.9
		v15.8h84.6v-12.6C1203.1,861.3,1154.4,811,1084.6,811z"/>
	<path class="st0" d="M1084.6,1229c-70.1,0-119.1,50.4-119.1,122.6v127.2c0,72.4,49,123.1,119.1,123.1S1203,1551,1203,1478.8v-17
		h-84.6v20.4c0,35.3-19.5,39.4-33.8,39.4c-14.4,0-34.7-4.1-34.7-39.4v-133.9c0-25.4,11.7-38.9,34.7-38.9c23,0,33.8,12.7,33.8,38.9
		v15.8h84.6v-12.6C1203.1,1279.3,1154.4,1229,1084.6,1229z"/>
	<path class="st0" d="M1084.6,1647c-70.1,0-119.1,50.4-119.1,122.6v127.2c0,72.4,49,123.1,119.1,123.1S1203,1969,1203,1896.8v-17
		h-84.6v20.4c0,35.3-19.5,39.4-33.8,39.4c-14.4,0-34.7-4.1-34.7-39.4v-133.9c0-25.4,11.7-38.9,34.7-38.9c23,0,33.8,12.7,33.8,38.9
		v15.8h84.6v-12.6C1203.1,1697.3,1154.4,1647,1084.6,1647z"/>
	<path class="st0" d="M1084.6,2052.1c-70.1,0-119.1,50.4-119.1,122.6v127.2c0,72.4,49,123.1,119.1,123.1S1203,2374,1203,2301.9v-17
		h-84.6v20.4c0,35.3-19.5,39.4-33.8,39.4c-14.4,0-34.7-4.1-34.7-39.4v-133.9c0-25.4,11.7-38.9,34.7-38.9c23,0,33.8,12.7,33.8,38.9
		v15.8h84.6v-12.6C1203.1,2102.4,1154.4,2052.1,1084.6,2052.1z"/>
	<path class="st0" d="M1084.6,2457.1c-70.1,0-119.1,50.4-119.1,122.6v127.2c0,72.4,49,123.1,119.1,123.1S1203,2779,1203,2706.9v-17
		h-84.6v20.4c0,35.3-19.5,39.4-33.8,39.4c-14.4,0-34.7-4.1-34.7-39.4v-133.9c0-25.4,11.7-38.9,34.7-38.9c23,0,33.8,12.7,33.8,38.9
		v15.8h84.6v-12.6C1203.1,2507.4,1154.4,2457.1,1084.6,2457.1z"/>
	<path class="st0" d="M1084.6,2875.1c-70.1,0-119.1,50.4-119.1,122.6v127.2c0,72.4,49,123.1,119.1,123.1S1203,3197,1203,3124.9v-17
		h-84.6v20.4c0,35.3-19.5,39.4-33.8,39.4c-14.4,0-34.7-4.1-34.7-39.4v-133.9c0-25.4,11.7-38.9,34.7-38.9c23,0,33.8,12.7,33.8,38.9
		v15.8h84.6v-12.6C1203.1,2925.4,1154.4,2875.1,1084.6,2875.1z"/>
	<path class="st0" d="M1084.6,3280c-70.1,0-119.1,50.4-119.1,122.6v127.2c0,72.4,49,123.1,119.1,123.1S1203,3602,1203,3529.8v-17
		h-84.6v20.4c0,35.3-19.5,39.4-33.8,39.4c-14.4,0-34.7-4.1-34.7-39.4v-133.9c0-25.5,11.7-38.9,34.7-38.9c23,0,33.8,12.7,33.8,38.9
		v15.8h84.6v-12.6C1203.1,3330.3,1154.4,3280,1084.6,3280z"/>
	<path class="st0" d="M1084.6,3685.1c-70.1,0-119.1,50.4-119.1,122.6v127.2c0,72.4,49,123.1,119.1,123.1S1203,4007,1203,3934.9v-17
		h-84.6v20.4c0,35.3-19.5,39.4-33.8,39.4c-14.4,0-34.7-4.1-34.7-39.4v-133.9c0-25.4,11.7-38.9,34.7-38.9c23,0,33.8,12.7,33.8,38.9
		v15.8h84.6v-12.6C1203.1,3735.4,1154.4,3685.1,1084.6,3685.1z"/>
	<path class="st0" d="M1084.6,4090.1c-70.1,0-119.1,50.4-119.1,122.6v127.2c0,72.4,49,123.1,119.1,123.1S1203,4412,1203,4339.9v-17
		h-84.6v20.4c0,35.3-19.5,39.4-33.8,39.4c-14.4,0-34.7-4.1-34.7-39.4v-133.9c0-25.4,11.7-38.9,34.7-38.9c23,0,33.8,12.7,33.8,38.9
		v15.8h84.6v-12.6C1203.1,4140.4,1154.4,4090.1,1084.6,4090.1z"/>
	<path class="st0" d="M1084.6,4508.1c-70.1,0-119.1,50.4-119.1,122.6v127.2c0,72.4,49,123.1,119.1,123.1S1203,4830,1203,4757.9v-17
		h-84.6v20.4c0,35.3-19.5,39.4-33.8,39.4c-14.4,0-34.7-4.1-34.7-39.4v-133.9c0-25.4,11.7-38.9,34.7-38.9c23,0,33.8,12.7,33.8,38.9
		v15.8h84.6v-12.6C1203.1,4558.4,1154.4,4508.1,1084.6,4508.1z"/>
</g>
<g id="a">
	<path class="st0" d="M776.6,7.6l-93.1,359.6h84l13.4-58.9l0.7-3.1h81.7l0.7,3.1l13.4,58.9h84.1l-92-359.6H776.6z M842,233.7h-44.8
		l0.9-4.8l20.8-103.6l4.1-20.4l3.8,20.4l19.2,103.6l0.8,4.8H842z"/>
	<path class="st0" d="M776.6,412.7l-93.1,359.6h84l13.4-58.9l0.7-3.1h81.7l0.7,3.1l13.4,58.9h84.1l-92-359.6H776.6z M842,638.7
		h-44.8l0.9-4.8l20.8-103.6l4.1-20.4l3.8,20.4L845.9,634l0.8,4.8H842z"/>
	<path class="st0" d="M776.6,817.7l-93.1,359.6h84l13.4-58.9l0.7-3.1h81.7l0.7,3.1l13.4,58.9h84.1l-92-359.6H776.6z M842,1043.7
		h-44.8l0.9-4.8l20.8-103.6l4.1-20.4l3.8,20.4l19.2,103.6l0.8,4.8H842z"/>
	<path class="st0" d="M776.6,1235.7l-93.1,359.6h84l13.4-58.9l0.7-3.1h81.7l0.7,3.1l13.4,58.9h84.1l-92-359.6H776.6z M842,1461.7
		h-44.8l0.9-4.8l20.8-103.6l4.1-20.4l3.8,20.4l19.2,103.7l0.8,4.8H842z"/>
	<path class="st0" d="M776.6,1653.7l-93.1,359.6h84l13.4-58.9l0.7-3.1h81.7l0.7,3.1l13.4,58.9h84.1l-92-359.6H776.6z M842,1879.7
		h-44.8l0.9-4.8l20.8-103.6l4.1-20.4l3.8,20.4l19.2,103.7l0.8,4.8H842z"/>
	<path class="st0" d="M776.6,2058.8l-93.1,359.6h84l13.4-58.9l0.7-3.1h81.7l0.7,3.1l13.4,58.9h84.1l-92-359.6H776.6z M842,2284.8
		h-44.8l0.9-4.8l20.8-103.6l4.1-20.4l3.8,20.4l19.2,103.7l0.8,4.8H842z"/>
	<path class="st0" d="M776.6,2463.8l-93.1,359.6h84l13.4-58.9l0.7-3.1h81.7l0.7,3.1l13.4,58.9h84.1l-92-359.6H776.6z M842,2689.8
		h-44.8l0.9-4.8l20.8-103.6l4.1-20.4l3.8,20.4l19.2,103.7l0.8,4.8H842z"/>
	<path class="st0" d="M776.6,2881.8l-93.1,359.6h84l13.4-58.9l0.7-3.1h81.7l0.7,3.1l13.4,58.9h84.1l-92-359.6H776.6z M842,3107.8
		h-44.8l0.9-4.8l20.8-103.6l4.1-20.4l3.8,20.4l19.2,103.7l0.8,4.8H842z"/>
	<path class="st0" d="M776.6,3286.7l-93.1,359.6h84l13.4-58.9l0.7-3.1h81.7l0.7,3.1l13.4,58.9h84.1l-92-359.6H776.6z M842,3512.7
		h-44.8l0.9-4.8l20.8-103.6l4.1-20.4l3.8,20.4l19.2,103.6l0.8,4.8H842z"/>
	<path class="st0" d="M776.6,3691.8l-93.1,359.6h84l13.4-58.9l0.7-3.1h81.7l0.7,3.1l13.4,58.9h84.1l-92-359.6H776.6z M842,3917.8
		h-44.8l0.9-4.8l20.8-103.6l4.1-20.4l3.8,20.4l19.2,103.7l0.8,4.8H842z"/>
	<path class="st0" d="M776.6,4096.8l-93.1,359.6h84l13.4-58.9l0.7-3.1h81.7l0.7,3.1l13.4,58.9h84.1l-92-359.6H776.6z M842,4322.8
		h-44.8l0.9-4.8l20.8-103.6l4.1-20.4l3.8,20.4l19.2,103.6l0.8,4.8H842z"/>
	<path class="st0" d="M776.6,4514.8l-93.1,359.6h84l13.4-58.9l0.7-3.1h81.7l0.7,3.1l13.4,58.9h84.1l-92-359.6H776.6z M842,4740.8
		h-44.8l0.9-4.8l20.8-103.6l4.1-20.4l3.8,20.4l19.2,103.6l0.8,4.8H842z"/>
</g>
<g id="p">
	<path class="st0" d="M578.7,7.6H461.1v359.6h84.6v-78.6h33.2c73.9,0,118.5-49.3,118.5-131.9v-15.1C696.6,59,651.5,7.6,578.7,7.6z
		 M613.8,155.7c0,36-15.4,53.4-47.1,53.4h-21.2v-121h21.2c11.7,0,47.1,0,47.1,54V155.7z"/>
	<path class="st0" d="M578.7,412.7H461.1v359.6h84.6v-78.6h33.2c73.9,0,118.5-49.3,118.5-131.9v-15.1
		C696.6,464,651.5,412.7,578.7,412.7z M613.8,560.8c0,36-15.4,53.4-47.1,53.4h-21.2v-121h21.2c11.7,0,47.1,0,47.1,54V560.8z"/>
	<path class="st0" d="M578.7,817.7H461.1v359.6h84.6v-78.6h33.2c73.9,0,118.5-49.3,118.5-131.9v-15.1
		C696.6,869,651.5,817.7,578.7,817.7z M613.8,965.8c0,36-15.4,53.4-47.1,53.4h-21.2v-121h21.2c11.7,0,47.1,0,47.1,54V965.8z"/>
	<path class="st0" d="M578.7,1235.7H461.1v359.6h84.6v-78.6h33.2c73.9,0,118.5-49.3,118.5-131.9v-15.1
		C696.6,1287,651.5,1235.7,578.7,1235.7z M613.8,1383.8c0,36-15.4,53.4-47.1,53.4h-21.2v-121h21.2c11.7,0,47.1,0,47.1,54V1383.8z"/>
	<path class="st0" d="M578.7,1653.7H461.1v359.6h84.6v-78.6h33.2c73.9,0,118.5-49.3,118.5-131.9v-15.1
		C696.6,1705,651.5,1653.7,578.7,1653.7z M613.8,1801.8c0,36-15.4,53.4-47.1,53.4h-21.2v-121h21.2c11.7,0,47.1,0,47.1,54V1801.8z"/>
	<path class="st0" d="M578.7,2058.8H461.1v359.6h84.6v-78.6h33.2c73.9,0,118.5-49.3,118.5-131.9v-15.1
		C696.6,2110.1,651.5,2058.8,578.7,2058.8z M613.8,2206.9c0,36-15.4,53.4-47.1,53.4h-21.2v-121h21.2c11.7,0,47.1,0,47.1,54V2206.9z"
		/>
	<path class="st0" d="M578.7,2463.8H461.1v359.6h84.6v-78.6h33.2c73.9,0,118.5-49.3,118.5-131.9v-15.1
		C696.6,2515.1,651.5,2463.8,578.7,2463.8z M613.8,2611.9c0,36-15.4,53.4-47.1,53.4h-21.2v-121h21.2c11.7,0,47.1,0,47.1,54V2611.9z"
		/>
	<path class="st0" d="M578.7,2881.8H461.1v359.6h84.6v-78.6h33.2c73.9,0,118.5-49.3,118.5-131.9v-15.1
		C696.6,2933.1,651.5,2881.8,578.7,2881.8z M613.8,3029.9c0,36-15.4,53.4-47.1,53.4h-21.2v-121h21.2c11.7,0,47.1,0,47.1,54V3029.9z"
		/>
	<path class="st0" d="M578.7,3286.7H461.1v359.6h84.6v-78.6h33.2c73.9,0,118.5-49.3,118.5-131.9v-15.1
		C696.6,3338,651.5,3286.7,578.7,3286.7z M613.8,3434.8c0,36-15.4,53.4-47.1,53.4h-21.2v-121h21.2c11.7,0,47.1,0,47.1,54V3434.8z"/>
	<path class="st0" d="M578.7,3691.8H461.1v359.6h84.6v-78.6h33.2c73.9,0,118.5-49.3,118.5-131.9v-15.1
		C696.6,3743.1,651.5,3691.8,578.7,3691.8z M613.8,3839.9c0,36-15.4,53.4-47.1,53.4h-21.2v-121h21.2c11.7,0,47.1,0,47.1,54V3839.9z"
		/>
	<path class="st0" d="M578.7,4096.8H461.1v359.6h84.6v-78.6h33.2c73.9,0,118.5-49.3,118.5-131.9v-15.1
		C696.6,4148.1,651.5,4096.8,578.7,4096.8z M613.8,4244.9c0,36-15.4,53.4-47.1,53.4h-21.2v-121h21.2c11.7,0,47.1,0,47.1,54V4244.9z"
		/>
	<path class="st0" d="M578.7,4514.8H461.1v359.6h84.6v-78.6h33.2c73.9,0,118.5-49.3,118.5-131.9v-15.1
		C696.6,4566.1,651.5,4514.8,578.7,4514.8z M613.8,4662.9c0,36-15.4,53.4-47.1,53.4h-21.2v-121h21.2c11.7,0,47.1,0,47.1,54V4662.9z"
		/>
</g>
<g id="d">
	<path class="st0" d="M119.6,7.6H0.5v359.6h119.1c15.8,0.6,31.5-2,46.2-7.8c14.7-5.8,28.1-14.5,39.2-25.7c21.7-23,33.1-57,33.1-98.4
		v-93.3C238.2,59,192.8,7.6,119.6,7.6z M155,234.4c0,36-15.2,53.4-46.6,53.4H85.1V88.1h23.3c41.8,0,46.6,30.9,46.6,54V234.4z"/>
	<path class="st0" d="M299.9,367.3L433.8,7.4h-64.1L235.7,367.3H299.9z"/>
	<path class="st0" d="M119.6,412.7H0.5v359.6h119.1c15.8,0.6,31.5-2,46.2-7.8c14.7-5.8,28.1-14.5,39.2-25.7
		c21.7-23,33.1-57,33.1-98.4v-93.3C238.2,464,192.8,412.7,119.6,412.7z M155,639.4c0,36-15.2,53.4-46.6,53.4H85.1V493.2h23.3
		c41.8,0,46.6,30.9,46.6,54V639.4z"/>
	<path class="st0" d="M299.9,772.3l133.9-359.9h-64.1L235.7,772.3H299.9z"/>
	<path class="st0" d="M119.6,817.7H0.5v359.6h119.1c15.8,0.7,31.5-2,46.2-7.8c14.7-5.8,28.1-14.5,39.2-25.7
		c21.7-23,33.1-57,33.1-98.4v-93.3C238.2,869,192.8,817.7,119.6,817.7z M155,1044.4c0,36-15.2,53.4-46.6,53.4H85.1V898.2h23.3
		c41.8,0,46.6,30.9,46.6,54V1044.4z"/>
	<path class="st0" d="M299.9,1177.3l133.9-359.9h-64.1l-133.9,359.9H299.9z"/>
	<path class="st0" d="M119.6,1235.7H0.5v359.6h119.1c15.8,0.7,31.5-2,46.2-7.8c14.7-5.8,28.1-14.5,39.2-25.7
		c21.7-23,33.1-57,33.1-98.4v-93.3C238.2,1287,192.8,1235.7,119.6,1235.7z M155,1462.4c0,36-15.2,53.4-46.6,53.4H85.1v-199.7h23.3
		c41.8,0,46.6,30.9,46.6,54V1462.4z"/>
	<path class="st0" d="M299.9,1595.3l133.9-359.9h-64.1l-133.9,359.9H299.9z"/>
	<path class="st0" d="M119.6,1653.7H0.5v359.6h119.1c15.8,0.7,31.5-2,46.2-7.8c14.7-5.8,28.1-14.5,39.2-25.7
		c21.7-23,33.1-57,33.1-98.4v-93.3C238.2,1705,192.8,1653.7,119.6,1653.7z M155,1880.4c0,36-15.2,53.4-46.6,53.4H85.1v-199.7h23.3
		c41.8,0,46.6,30.9,46.6,54V1880.4z"/>
	<path class="st0" d="M299.9,2013.3l133.9-359.9h-64.1l-133.9,359.9H299.9z"/>
	<path class="st0" d="M119.6,2058.8H0.5v359.6h119.1c15.8,0.7,31.5-2,46.2-7.8c14.7-5.8,28.1-14.5,39.2-25.7
		c21.7-23,33.1-57,33.1-98.4v-93.3C238.2,2110.1,192.8,2058.8,119.6,2058.8z M155,2285.5c0,36-15.2,53.4-46.6,53.4H85.1v-199.7h23.3
		c41.8,0,46.6,30.9,46.6,54V2285.5z"/>
	<path class="st0" d="M299.9,2418.4l133.9-359.9h-64.1l-133.9,359.9H299.9z"/>
	<path class="st0" d="M119.6,2463.8H0.5v359.6h119.1c15.8,0.7,31.5-2,46.2-7.8c14.7-5.8,28.1-14.5,39.2-25.7
		c21.7-23,33.1-57,33.1-98.4v-93.3C238.2,2515.1,192.8,2463.8,119.6,2463.8z M155,2690.5c0,36-15.2,53.4-46.6,53.4H85.1v-199.7h23.3
		c41.8,0,46.6,30.9,46.6,54V2690.5z"/>
	<path class="st0" d="M299.9,2823.4l133.9-359.9h-64.1l-133.9,359.9H299.9z"/>
	<path class="st0" d="M119.6,2881.8H0.5v359.6h119.1c15.8,0.7,31.5-2,46.2-7.8c14.7-5.8,28.1-14.5,39.2-25.7
		c21.7-23,33.1-57,33.1-98.4v-93.3C238.2,2933.1,192.8,2881.8,119.6,2881.8z M155,3108.5c0,36-15.2,53.4-46.6,53.4H85.1v-199.7h23.3
		c41.8,0,46.6,30.9,46.6,54V3108.5z"/>
	<path class="st0" d="M299.9,3241.4l133.9-359.9h-64.1l-133.9,359.9H299.9z"/>
	<path class="st0" d="M119.6,3286.7H0.5v359.6h119.1c15.8,0.6,31.5-2,46.2-7.8c14.7-5.8,28.1-14.5,39.2-25.7
		c21.7-23,33.1-57,33.1-98.4v-93.3C238.2,3338,192.8,3286.7,119.6,3286.7z M155,3513.4c0,36-15.2,53.4-46.6,53.4H85.1v-199.7h23.3
		c41.8,0,46.6,30.9,46.6,54V3513.4z"/>
	<path class="st0" d="M299.9,3646.3l133.9-359.9h-64.1l-133.9,359.9H299.9z"/>
	<path class="st0" d="M119.6,3691.8H0.5v359.6h119.1c15.8,0.7,31.5-2,46.2-7.8c14.7-5.8,28.1-14.5,39.2-25.7
		c21.7-23,33.1-57,33.1-98.4v-93.3C238.2,3743.1,192.8,3691.8,119.6,3691.8z M155,3918.5c0,36-15.2,53.4-46.6,53.4H85.1v-199.7h23.3
		c41.8,0,46.6,30.9,46.6,54V3918.5z"/>
	<path class="st0" d="M299.9,4051.4l133.9-359.9h-64.1l-133.9,359.9H299.9z"/>
	<path class="st0" d="M119.6,4096.8H0.5v359.6h119.1c15.8,0.6,31.5-2,46.2-7.8c14.7-5.8,28.1-14.5,39.2-25.7
		c21.7-23,33.1-57,33.1-98.4v-93.3C238.2,4148.1,192.8,4096.8,119.6,4096.8z M155,4323.5c0,36-15.2,53.4-46.6,53.4H85.1v-199.7h23.3
		c41.8,0,46.6,30.9,46.6,54V4323.5z"/>
	<path class="st0" d="M299.9,4456.4l133.9-359.9h-64.1l-133.9,359.9H299.9z"/>
	<path class="st0" d="M119.6,4514.8H0.5v359.6h119.1c15.8,0.6,31.5-2,46.2-7.8c14.7-5.8,28.1-14.5,39.2-25.7
		c21.7-23,33.1-57,33.1-98.4v-93.3C238.2,4566.1,192.8,4514.8,119.6,4514.8z M155,4741.5c0,36-15.2,53.4-46.6,53.4H85.1v-199.7h23.3
		c41.8,0,46.6,30.9,46.6,54V4741.5z"/>
	<path class="st0" d="M299.9,4874.4l133.9-359.9h-64.1l-133.9,359.9H299.9z"/>
</g>
</svg>
